<svg xmlns="http://www.w3.org/2000/svg" width="55" height="55" viewBox="0 0 55 55" fill="none">
    <g filter="url(#filter0_i_609_939)">
        <circle cx="27.5" cy="27.5" r="27.5" fill="white"/>
    </g>
    <line x1="13.8677" y1="34.7926" x2="15.0148" y2="33.6455" stroke="#418B24" stroke-width="0.5"/>
    <line x1="13.2025" y1="34.8921" x2="14.3496" y2="33.745" stroke="#418B24" stroke-width="1.3"/>
    <line x1="12.8798" y1="35.8165" x2="14.0269" y2="34.2871" stroke="#418B24"/>
    <line x1="10.2753" y1="32.9483" x2="11.8048" y2="31.0364" stroke="#418B24" stroke-width="0.35"/>
    <line x1="10.408" y1="32.9014" x2="11.9374" y2="30.9896" stroke="#418B24" stroke-width="0.5"/>
    <line x1="9.95037" y1="33.5701" x2="11.8622" y2="31.0847" stroke="#418B24" stroke-width="0.2"/>
    <path d="M24.0682 21.4497C24.9317 22.2788 24.9596 23.651 24.1305 24.5145L15.1989 33.8169C14.3697 34.6804 12.9976 34.7083 12.134 33.8792C11.2705 33.0501 11.2426 31.6779 12.0717 30.8144L21.0034 21.512C21.8325 20.6485 23.2047 20.6206 24.0682 21.4497Z" fill="#418B24"/>
    <path d="M24.5598 38.656C25.3429 39.5078 25.2872 40.8332 24.4354 41.6163L21.5442 44.2743C20.7666 44.9891 19.5568 44.9382 18.842 44.1607C17.9906 43.2346 18.0512 41.7937 18.9773 40.9423L21.5995 38.5316C22.4514 37.7485 23.7767 37.8042 24.5598 38.656Z" fill="#418B24"/>
    <path d="M13.1063 36.4693C12.9944 36.6295 12.7739 36.6687 12.6137 36.5569L9.78136 34.5804C9.62115 34.4685 9.58191 34.248 9.69371 34.0878C9.80552 33.9276 10.026 33.8884 10.1862 34.0002L13.0186 35.9767C13.1788 36.0886 13.2181 36.3091 13.1063 36.4693Z" fill="#418B24"/>
    <path fill-rule="evenodd" clip-rule="evenodd" d="M20.351 45.0557C20.8144 44.8086 21.2516 44.5182 21.6572 44.1893C22.5668 43.4518 22.3445 42.0968 21.3955 41.4108L21.1057 41.2013C20.3235 40.6358 19.2363 40.8592 18.3846 41.3134C17.8694 41.5882 17.2995 41.7424 16.7186 41.7642C16.1377 41.786 15.5612 41.6749 15.0331 41.4393C14.505 41.2037 14.0393 40.8499 13.6717 40.4049C13.3042 39.9599 13.0444 39.4356 12.9123 38.872C12.7801 38.3084 12.7792 37.7205 12.9095 37.1533C13.0398 36.586 13.2979 36.0544 13.6641 35.5991C14.2693 34.8465 14.6927 33.8203 14.2846 32.9449L14.135 32.6239C13.6391 31.5602 12.3465 31.0868 11.4512 31.8456C11.0545 32.1817 10.6894 32.5559 10.3616 32.9635C9.58679 33.9269 9.04063 35.0519 8.76489 36.2523C8.48915 37.4527 8.49113 38.6968 8.7707 39.8894C9.05027 41.082 9.60001 42.1916 10.3779 43.1331C11.1557 44.0747 12.1411 44.8235 13.2586 45.322C14.3761 45.8206 15.5962 46.0557 16.8255 46.0096C18.0547 45.9634 19.2607 45.6371 20.351 45.0557Z" fill="#418B24"/>
    <line x1="34.4103" y1="40.3023" x2="33.2632" y2="39.1552" stroke="#B71900" stroke-width="0.5"/>
    <line x1="34.5099" y1="40.9674" x2="33.3628" y2="39.8203" stroke="#B71900" stroke-width="1.3"/>
    <line x1="35.4342" y1="41.2901" x2="33.9047" y2="40.143" stroke="#B71900"/>
    <line x1="32.5816" y1="43.875" x2="30.6697" y2="42.3456" stroke="#B71900" stroke-width="0.3"/>
    <line x1="32.5191" y1="43.7618" x2="30.6073" y2="42.2324" stroke="#B71900" stroke-width="0.5"/>
    <line x1="33.1878" y1="44.2195" x2="30.7025" y2="42.3076" stroke="#B71900" stroke-width="0.2"/>
    <path d="M21.0674 30.1017C21.8965 29.2382 23.2687 29.2103 24.1323 30.0394L33.4346 38.971C34.2981 39.8001 34.326 41.1723 33.4969 42.0359C32.6678 42.8994 31.2956 42.9273 30.4321 42.0982L21.1297 33.1665C20.2662 32.3374 20.2383 30.9652 21.0674 30.1017Z" fill="#B71900"/>
    <path d="M38.2737 29.61C39.1255 28.8269 40.4509 28.8826 41.234 29.7344L43.892 32.6257C44.6068 33.4032 44.5559 34.613 43.7784 35.3279C42.8523 36.1792 41.4114 36.1187 40.56 35.1926L38.1493 32.5703C37.3662 31.7185 37.4219 30.3931 38.2737 29.61Z" fill="#B71900"/>
    <path d="M36.0869 41.0636C36.2471 41.1754 36.2864 41.3959 36.1746 41.5561L34.198 44.3885C34.0862 44.5487 33.8657 44.5879 33.7055 44.4761C33.5453 44.3643 33.506 44.1438 33.6178 43.9836L35.5944 41.1512C35.7062 40.991 35.9267 40.9518 36.0869 41.0636Z" fill="#B71900"/>
    <path fill-rule="evenodd" clip-rule="evenodd" d="M44.6733 33.8189C44.4262 33.3555 44.1358 32.9183 43.807 32.5127C43.0695 31.6031 41.7145 31.8254 41.0285 32.7744L40.819 33.0642C40.2535 33.8464 40.4769 34.9335 40.9311 35.7852C41.2058 36.3005 41.36 36.8704 41.3819 37.4513C41.4037 38.0322 41.2925 38.6087 41.0569 39.1368C40.8213 39.6649 40.4675 40.1306 40.0226 40.4981C39.5776 40.8657 39.0533 41.1255 38.4897 41.2576C37.9261 41.3897 37.3382 41.3907 36.7709 41.2604C36.2037 41.1301 35.6721 40.872 35.2168 40.5058C34.4642 39.9005 33.4379 39.4771 32.5626 39.8852L32.2415 40.0349C31.1779 40.5308 30.7045 41.8233 31.4633 42.7187C31.7994 43.1153 32.1736 43.4804 32.5812 43.8083C33.5446 44.5831 34.6695 45.1293 35.87 45.405C37.0704 45.6807 38.3145 45.6787 39.5071 45.3992C40.6997 45.1196 41.8092 44.5699 42.7508 43.792C43.6924 43.0141 44.4411 42.0288 44.9397 40.9113C45.4382 39.7937 45.6734 38.5737 45.6273 37.3444C45.5811 36.1151 45.2548 34.9092 44.6733 33.8189Z" fill="#B71900"/>
    <line x1="19.3833" y1="14.0589" x2="20.5304" y2="15.206" stroke="#520380" stroke-width="0.5"/>
    <line x1="19.2838" y1="13.3937" x2="20.4309" y2="14.5408" stroke="#520380" stroke-width="1.3"/>
    <line x1="18.3594" y1="13.0709" x2="19.8889" y2="14.218" stroke="#520380"/>
    <line x1="21.2121" y1="10.4862" x2="23.1239" y2="12.0157" stroke="#520380" stroke-width="0.3"/>
    <line x1="21.2745" y1="10.5992" x2="23.1864" y2="12.1287" stroke="#520380" stroke-width="0.5"/>
    <line x1="20.6058" y1="10.1416" x2="23.0912" y2="12.0535" stroke="#520380" stroke-width="0.2"/>
    <path d="M32.7262 24.2594C31.8971 25.123 30.5249 25.1509 29.6614 24.3218L20.359 15.3901C19.4955 14.561 19.4676 13.1888 20.2967 12.3253C21.1258 11.4617 22.498 11.4338 23.3615 12.263L32.6639 21.1946C33.5274 22.0237 33.5553 23.3959 32.7262 24.2594Z" fill="#520380"/>
    <path d="M15.52 24.751C14.6681 25.5341 13.3428 25.4784 12.5597 24.6266L9.90167 21.7354C9.18685 20.9578 9.2377 19.748 10.0152 19.0332C10.9413 18.1818 12.3823 18.2424 13.2336 19.1685L15.6444 21.7908C16.4275 22.6426 16.3718 23.9679 15.52 24.751Z" fill="#520380"/>
    <path d="M17.7067 13.2975C17.5465 13.1857 17.5072 12.9652 17.619 12.8049L19.5956 9.97259C19.7074 9.81237 19.9279 9.77313 20.0881 9.88494C20.2484 9.99674 20.2876 10.2173 20.1758 10.3775L18.1992 13.2098C18.0874 13.37 17.8669 13.4093 17.7067 13.2975Z" fill="#520380"/>
    <path fill-rule="evenodd" clip-rule="evenodd" d="M9.1203 20.5422C9.3674 21.0055 9.6578 21.4428 9.98667 21.8484C10.7242 22.758 12.0791 22.5357 12.7652 21.5867L12.9747 21.2969C13.5402 20.5147 13.3168 19.4275 12.8626 18.5758C12.5878 18.0606 12.4336 17.4907 12.4118 16.9098C12.39 16.3289 12.5011 15.7524 12.7367 15.2243C12.9723 14.6962 13.3261 14.2305 13.7711 13.8629C14.216 13.4953 14.7404 13.2356 15.3039 13.1035C15.8675 12.9713 16.4554 12.9704 17.0227 13.1007C17.59 13.231 18.1216 13.4891 18.5768 13.8552C19.3294 14.4605 20.3557 14.8839 21.2311 14.4758L21.5521 14.3262C22.6158 13.8303 23.0892 12.5377 22.3304 11.6424C21.9942 11.2457 21.6201 10.8806 21.2124 10.5528C20.249 9.77798 19.1241 9.23182 17.9237 8.95608C16.7233 8.68034 15.4792 8.68233 14.2866 8.96189C13.094 9.24146 11.9844 9.7912 11.0428 10.5691C10.1012 11.3469 9.35251 12.3323 8.85396 13.4498C8.3554 14.5673 8.12021 15.7874 8.16638 17.0167C8.21254 18.2459 8.53884 19.4519 9.1203 20.5422Z" fill="#520380"/>
    <line x1="40.3022" y1="19.5746" x2="39.1551" y2="20.7217" stroke="#0D21A1" stroke-width="0.5"/>
    <line x1="40.9674" y1="19.4751" x2="39.8203" y2="20.6222" stroke="#0D21A1" stroke-width="1.3"/>
    <line x1="41.2902" y1="18.5506" x2="40.1431" y2="20.0801" stroke="#0D21A1"/>
    <line x1="43.8751" y1="21.4034" x2="42.3456" y2="23.3152" stroke="#0D21A1" stroke-width="0.3"/>
    <line x1="43.762" y1="21.4658" x2="42.2325" y2="23.3777" stroke="#0D21A1" stroke-width="0.5"/>
    <line x1="44.2196" y1="20.797" x2="42.3077" y2="23.2824" stroke="#0D21A1" stroke-width="0.2"/>
    <path d="M30.1017 32.9173C29.2382 32.0882 29.2103 30.716 30.0394 29.8525L38.9711 20.5501C39.8002 19.6866 41.1724 19.6587 42.0359 20.4878C42.8994 21.3169 42.9273 22.6891 42.0982 23.5526L33.1666 32.855C32.3374 33.7185 30.9653 33.7464 30.1017 32.9173Z" fill="#0D21A1"/>
    <path d="M29.6101 15.7111C28.827 14.8593 28.8827 13.5339 29.7345 12.7508L32.6258 10.0928C33.4033 9.37798 34.6131 9.42883 35.3279 10.2064C36.1793 11.1325 36.1188 12.5734 35.1927 13.4248L32.5704 15.8355C31.7186 16.6186 30.3932 16.5629 29.6101 15.7111Z" fill="#0D21A1"/>
    <path d="M41.0637 17.8979C41.1755 17.7377 41.396 17.6984 41.5562 17.8102L44.3886 19.7868C44.5488 19.8986 44.588 20.1191 44.4762 20.2793C44.3644 20.4395 44.1439 20.4788 43.9837 20.367L41.1513 18.3904C40.9911 18.2786 40.9519 18.0581 41.0637 17.8979Z" fill="#0D21A1"/>
    <path fill-rule="evenodd" clip-rule="evenodd" d="M33.8189 9.31143C33.3556 9.55853 32.9183 9.84893 32.5127 10.1778C31.6031 10.9153 31.8254 12.2703 32.7744 12.9563L33.0642 13.1658C33.8464 13.7313 34.9336 13.5079 35.7853 13.0537C36.3005 12.7789 36.8704 12.6247 37.4513 12.6029C38.0322 12.5811 38.6088 12.6922 39.1369 12.9278C39.6649 13.1634 40.1306 13.5172 40.4982 13.9622C40.8658 14.4072 41.1256 14.9315 41.2577 15.4951C41.3898 16.0587 41.3907 16.6466 41.2604 17.2138C41.1301 17.7811 40.872 18.3127 40.5059 18.768C39.9006 19.5206 39.4772 20.5468 39.8853 21.4222L40.0349 21.7432C40.5308 22.8069 41.8234 23.2803 42.7187 22.5215C43.1154 22.1854 43.4805 21.8112 43.8083 21.4036C44.5831 20.4402 45.1293 19.3152 45.405 18.1148C45.6808 16.9144 45.6788 15.6703 45.3992 14.4777C45.1197 13.2851 44.5699 12.1755 43.7921 11.2339C43.0142 10.2924 42.0288 9.54364 40.9113 9.04509C39.7938 8.54654 38.5737 8.31135 37.3445 8.35751C36.1152 8.40367 34.9093 8.72997 33.8189 9.31143Z" fill="#0D21A1"/>
    <circle cx="27" cy="6.55801" r="4.55801" fill="#0D21A1"/>
    <circle cx="27" cy="47.9945" r="4.55801" fill="#418B24"/>
    <circle cx="6.41989" cy="27.4144" r="4.41989" fill="#520380"/>
    <circle cx="47.5801" cy="27.4144" r="4.41989" fill="#B71900"/>
</svg>